<svg xmlns="http://www.w3.org/2000/svg" xmlns:xlink="http://www.w3.org/1999/xlink" width="559" zoomAndPan="magnify" viewBox="0 0 419.25 297.749991" height="397" preserveAspectRatio="xMidYMid meet" version="1.2"><defs><clipPath id="9fe1d6a447"><path d="M 0 0.140625 L 113.160156 0.140625 L 113.160156 297.050781 L 0 297.050781 Z M 0 0.140625 "/></clipPath><clipPath id="4417b03941"><path d="M 113.160156 0.140625 L 214.441406 0.140625 L 214.441406 297 L 113.160156 297 Z M 113.160156 0.140625 "/></clipPath><clipPath id="e6850a892e"><path d="M 316.472656 0.140625 L 418.5 0.140625 L 418.5 297.050781 L 316.472656 297.050781 Z M 316.472656 0.140625 "/></clipPath><clipPath id="e284148cb0"><path d="M 214.441406 0.140625 L 316.472656 0.140625 L 316.472656 297.050781 L 214.441406 297.050781 Z M 214.441406 0.140625 "/></clipPath></defs><g id="7d4977ed84"><g clip-rule="nonzero" clip-path="url(#9fe1d6a447)"><path style=" stroke:none;fill-rule:nonzero;fill:#14447e;fill-opacity:1;" d="M 0 0.140625 L 113.160156 0.140625 L 113.160156 297.1875 L 0 297.1875 Z M 0 0.140625 "/></g><g clip-rule="nonzero" clip-path="url(#4417b03941)"><path style=" stroke:none;fill-rule:nonzero;fill:#f4f4f4;fill-opacity:1;" d="M 113.160156 0.140625 L 214.441406 0.140625 L 214.441406 296.871094 L 113.160156 296.871094 Z M 113.160156 0.140625 "/></g><g clip-rule="nonzero" clip-path="url(#e6850a892e)"><path style=" stroke:none;fill-rule:nonzero;fill:#98fb98;fill-opacity:1;" d="M 316.472656 0.140625 L 418.5 0.140625 L 418.5 297.0625 L 316.472656 297.0625 Z M 316.472656 0.140625 "/></g><g clip-rule="nonzero" clip-path="url(#e284148cb0)"><path style=" stroke:none;fill-rule:nonzero;fill:#048004;fill-opacity:1;" d="M 214.441406 0.140625 L 316.472656 0.140625 L 316.472656 297.0625 L 214.441406 297.0625 Z M 214.441406 0.140625 "/></g></g></svg>