<?xml version="1.0" encoding="UTF-8"?>
<svg id="Layer_1" xmlns="http://www.w3.org/2000/svg" version="1.1" viewBox="0 0 540.04 675.39">
  <!-- Generator: Adobe Illustrator 29.0.0, SVG Export Plug-In . SVG Version: 2.1.0 Build 186)  -->
  <path d="M475.5.45c-5.61,5.35-12.09,9.9-18.14,14.8-64.29,52.18-124.21,109.48-183.53,167.15-.46-.32-2.02-.46-2.57-1.25-6.43-3.71-13.75-11.17-20.13-14.38-1.83-.92-3.18-1.01-5.05-.23-1.35.56-9,7.23-10.58,8.67-6.59,6-13,12.7-19.33,18.99-9.23,9.18-18.12,18.79-27.27,28.07-3.38-3.51-6.18-7.59-9.4-11.2-1.9-2.13-4.14-4.93-6.27-6.73-.77-.65-5.54-4.07-6.06-3.58-2.6,14.79-1.13,29.77,1.24,44.47l-24.77,28.12-13.22-11.19c-.23.85.33,1.25.61,1.85,1.14,2.41,8.03,13.24,7.68,14.78-8.4,11.05-17.83,21.43-25.95,32.72-4.64,6.46-9.7,13.88-11.36,21.8-1.82,8.65.72,16.15.78,24.76L0,464.3v-69.91l3.78-4.06c59.48-83.6,124.88-162.72,189.38-242.43.18.86,1.26-.26,1.55-.47.59-.43,1.23-.88,1.8-1.34C258.73,95.1,321.68,44.85,389.13.8c28.7-.6,57.6-.4,86.37-.35ZM327.49,69.13c-8.26,1.42-9.37,13.72-1.32,16.35,9.49,3.09,15.78-9.2,7.69-14.86-2.03-1.42-3.88-1.91-6.36-1.49ZM276.39,134.1c-10.55,2.17-4.39,18.17,4.76,12.83,6.78-3.95,2.48-14.32-4.76-12.83ZM50.51,378.35c-5.87,1.35-3.21,11.57,3.53,8.9,5.17-2.05,2.83-10.37-3.53-8.9Z" fill="#f8deec"/>
  <path d="M301.61.45c-12.16,16.08-24.62,31.97-37.21,47.72-22.89,28.64-45.83,57.59-69.47,85.6-1.64,1.94-3.98,5-5.81,6.51-59.44,49.05-116.73,100.55-175.22,150.81-3.73,3.21-8.05,7.16-11.88,10.08-.63.48-1.2.84-2.02.89v-115.63L222.29.45c26.43-.02,52.89,0,79.32,0ZM200.68,44.91c-10.13.99-6.82,17.78,3.54,13.43,7.33-3.08,4.36-14.21-3.54-13.43ZM133.87,122.89c-1.3.29-3.57,2.7-4.13,3.94-2.05,4.54,1.46,9.36,6.27,9.45,10.53.19,8.87-15.88-2.14-13.38ZM79.65,158.3c-1.83.37-4.22,2.25-4.98,3.98-3.67,8.36,6.6,16.75,13.63,10.49,6.99-6.23.21-16.28-8.64-14.47Z" fill="#f8deec"/>
  <path d="M333.88,228.56c.89-.01,1.26-.55,1.79-1.13,12.28-13.42,24.49-28.6,36.29-42.58C421.84,125.8,471.71,66.01,512.92.45h26.67l-.03,114.56.48,1.52v13h-.45v-11.87s-.89-.22-.89-.22l-134.9,174.78c-12.15-14.57-32.81-31.46-47.42-44.34-7.4-6.52-14.95-12.96-22.49-19.3ZM473.13,140.37c-2,.45-3.73,3.07-3.91,5.06-.77,8.73,11.49,9.14,12.12,1.81.45-5.22-3.16-8.02-8.22-6.87ZM417.11,189.67c-4.33.99-3.33,9.45,2.49,8.32,5.28-1.02,4.52-9.92-2.49-8.32Z" fill="#f8deec"/>
  <path d="M114.28,475.06c-1.01-.07-1.16.69-1.63,1.28-32.01,39.95-64.35,79.76-94.19,121.38-6.21,8.66-11.94,17.73-18.46,26.13v-148.79l103.08-106.66c3.13,35.6,7.06,71.17,11.2,106.66ZM73.38,441.55c-7.36,1.53-5.94,14.31,2.93,12.79,8.24-1.41,6.2-14.69-2.93-12.79Z" fill="#f8deec"/>
  <path d="M540.03,430.24c.03,4.92-.02,9.87,0,14.79h-.45c-.02-4.1.12-8.23,0-12.33-.01-.44.24-1.51-.45-.9-42.22,57.23-85.35,114.77-120.18,176.95-4.75,8.47-9.62,17.1-13.82,25.85-.89,0-1.24.61-1.8,1.11-4.77,4.33-8.93,9.36-13.43,13.91-8.46,8.58-17.37,16.69-25.78,25.31h-40.56c29-51.95,63-100.83,96.8-149.69,4.24-.39,8.52-.54,12.77-.9,1.36-.11,3.22-.43,4.52-.86.59-.8-1.77-17.24-2.05-19.75l103.75-141.17c.53,22.03.07,44.11.19,66.16,0,.82.48,1.44.48,1.52ZM487.48,453.2c-7.1,1.44-5.38,13.7,3.73,10.9,5.5-1.69,3.69-12.41-3.73-10.9ZM387.08,606.01c-2.79.82-3.15,6.93.47,7.86,6.82,1.76,6.83-6.85,3.38-7.86-.82-.24-3.03-.24-3.85,0Z" fill="#f8deec"/>
  <path d="M116.07,488.05l7.68,64.02,44.97-3.08c6.43-1.11,13-1.24,19.5-1.79-52.95,44.09-106.7,87.35-162.87,127.31l-25.36.41v-33.16c32.45-48.63,68.3-94.92,104.88-140.49,3.61-4.49,7.31-8.97,11.19-13.23ZM63.96,594.82c-5.8,1.18-4.98,10.44,1.29,10.61,7.81.2,6.98-12.29-1.29-10.61Z" fill="#f8deec"/>
  <path d="M540.03,297.58v13.89c-.74.47-.45,1.7-.46,2.46-.13,10.52.31,21.07-.23,31.58-35.41,47.64-70.69,95.38-105.52,143.43-2.87-25.51-5.3-51.11-8.07-76.64,36.98-35.17,74.64-69.69,113.83-102.41v-10.08c-.79-.2-.9.33-1.35.67-2.61,1.97-5.52,4.56-8.07,6.72-36.13,30.43-70.67,62.71-105.31,94.79-1.26-11.65-2.7-23.31-4.03-34.96,38.95-31.19,77.82-62.53,118.54-91.42l.19,20.44.48,1.52ZM461.47,384.62c-4.34,1.29-2.03,10.8,3.84,7.87,4.45-2.22,1.12-9.34-3.84-7.87Z" fill="#f8deec"/>
  <path d="M43.02.45c24.42-.03,48.85.02,73.28,0l1.11.67C75.18,53.44,38.35,109.87,3.59,167.4c-1.04,1.72-2.15,3.76-3.59,5.15V62.74L43.02.45ZM40.22,39.52c-4.92.86-4.62,8.37.39,8.86,6.64.65,6.09-9.99-.39-8.86Z" fill="#f8deec"/>
  <path d="M540.03,572.31v12.1c-.74.47-.45,1.7-.46,2.46-.08,7.7.24,15.42-.19,23.11-9.6,21.28-18.48,42.88-26.67,64.75-26.14.37-52.31.22-78.45.21-.23-1.02.58-.94,1.11-1.33,36.84-27.1,70.17-58.98,104.21-89.42v-10.53l-1.35.67c-14.76,13.46-29.39,27.11-44.36,40.34-23.99,21.21-48.18,42.45-74.85,60.27-6.57,0-13.15.02-19.72,0,2.1-9.91,5.31-20.33,9.78-29.43.59-1.19,1.03-2.23,1.87-3.28,4.92-6.14,13.91-13.48,19.73-19.48,7.62-7.85,15.27-15.82,22.86-23.75,28.86-30.16,56.95-61.05,85.81-91.21l.19,63.02.48,1.52ZM504.51,558.97c-9.54,1.59-9.12,16.02-.07,17.33,14.46,2.09,13.51-19.57.07-17.33Z" fill="#f8deec"/>
  <path d="M0,.45v-.45h540.03v116.52l-.48-1.52.03-114.56h-26.67c-41.21,65.57-91.08,125.35-140.96,184.41-11.81,13.98-24.01,29.17-36.29,42.58-.53.58-.9,1.11-1.79,1.13-2.25-1.9-4.44-3.95-6.72-5.83.62-1.47,2.09-3.02,3.15-4.25,27.36-31.67,54.63-63.51,81.09-95.93,31.87-39.05,62.86-78.98,90.09-121.45.12-.91-.04-.58-.66-.67-3.44-.46-8.65.02-12.33,0-4.33-.02-8.67,0-13,0-28.77-.05-57.67-.25-86.37.35-67.45,44.05-130.39,94.3-192.62,145.29-.56.46-1.2.91-1.8,1.34-.29.21-1.38,1.32-1.55.47,9.61-11.87,19.53-23.56,29.13-35.41l53.82-42.31c31.54-23.85,63.31-47.51,96.31-69.29.12-.74-.6-.42-1.11-.44-19.32-.99-40.33,0-59.84,0-3.28,0-6.58,0-9.86,0-26.43,0-52.89-.02-79.32,0-4.18,0-8.37,0-12.55,0-26.67.02-53.35,0-80.02-.03l-1.8.44c-33.2,41.84-63.74,85.77-92.25,130.93-5.78,9.16-12.98,19.67-17.93,29.13-.38.73-.83,1.28-.71,2.2-5.55,4.59-11.02,9.49-17.03,13.44v-4.03c1.44-1.38,2.55-3.43,3.59-5.15C38.35,109.87,75.18,53.44,117.41,1.11l-1.11-.67c-24.43.02-48.86-.03-73.28,0-2.98,0-5.98,0-8.96,0H0Z" fill="#fffefe"/>
  <path d="M156.86,179.71c-.23,1.06-1.13,2.06-1.81,2.9-8.67,10.87-17.71,21.46-26.42,32.29C84.59,269.63,41.55,325.2,0,381.84v-67.22c44.35-37.01,87.06-75.95,130.86-113.62,8.25-7.1,17.07-15.52,26-21.28Z" fill="#f8deec"/>
  <path d="M420.37,525.25c-33.81,48.86-67.8,97.74-96.8,149.69h40.56c8.41-8.62,17.32-16.73,25.78-25.31,4.49-4.55,8.65-9.58,13.43-13.91.56-.51.91-1.12,1.8-1.11-3.77,7.87-7.71,16.78-10.31,25.1l-15.68,14.57c-.19,1.01.44.62,1.11.67,3.48.25,7.44-.02,10.99,0,2.68.01,5.38,0,8.07,0,6.57.02,13.15,0,19.72,0,5.07,0,10.16,0,15.24,0,26.14.02,52.31.16,78.45-.21,8.2-21.87,17.07-43.47,26.67-64.75.43-7.69.11-15.41.19-23.11,0-.76-.29-1.99.46-2.46v49.3l-20.62,41.23h20.62v.45H0v-.45l25.36-.41c56.17-39.97,109.92-83.23,162.87-127.31,5.66-.48,11.37-.85,17.03-1.34-53.39,44.34-107.21,88.29-163.58,128.85l93.66.22c2.83,0,5.68,0,8.52,0,4.77,0,9.57,0,14.34,0h12.1l141.62-.23c28.57-51.31,61.7-99.84,95.01-148.12,4.47-.41,8.97-.93,13.44-1.34Z" fill="#fffefe"/>
  <path d="M311.47.45c-24,30.97-48.43,61.62-73.06,92.09-5.36,6.63-10.82,13.4-16.12,19.96-9.6,11.85-19.52,23.53-29.13,35.41C128.66,227.6,63.26,306.73,3.78,390.32l-3.78,4.06v-12.55c41.55-56.63,84.59-112.21,128.63-166.93,8.71-10.83,17.75-21.42,26.42-32.29.67-.84,1.57-1.84,1.81-2.9,2.14-1.38,6.15-6.9,8.06-9.2,7.38-8.89,14.66-17.93,21.96-26.89.79-.97,1.9-2.16,2.25-3.35,1.83-1.51,4.18-4.57,5.81-6.51,23.64-28.01,46.58-56.96,69.47-85.6,12.59-15.75,25.05-31.63,37.21-47.72,3.28,0,6.58,0,9.86,0Z" fill="#d7aed2"/>
  <path d="M222.29.45L0,186.44v-9.86c6.01-3.96,11.48-8.85,17.03-13.44C71.86,117.77,125.07,70.44,179.95,25.11c9.93-8.2,20.28-16.06,29.79-24.66,4.18,0,8.37,0,12.55,0Z" fill="#d7aed2"/>
  <path d="M189.12,140.28c-.35,1.19-1.46,2.38-2.25,3.35-7.3,8.96-14.58,18-21.96,26.89-1.9,2.29-5.92,7.82-8.06,9.2-8.93,5.76-17.74,14.18-26,21.28C87.06,238.67,44.35,277.6,0,314.61v-12.55c.81-.05,1.39-.42,2.02-.89,3.84-2.92,8.15-6.87,11.88-10.08,58.49-50.26,115.78-101.77,175.22-150.81Z" fill="#fffefe"/>
  <path d="M540.03,572.31l-.48-1.52-.19-63.02c-28.86,30.16-56.96,61.05-85.81,91.21-7.59,7.93-15.23,15.9-22.86,23.75-5.83,6-14.81,13.34-19.73,19.48,4.38-11.38,11.05-21.71,17.03-32.27,2.3-1.19,4.47-3.68,6.29-5.59,35.31-37,70.07-74.54,105.07-111.84.39-15.67.28-31.38.23-47.05,0-.15,0-.3,0-.45h.45v127.28Z" fill="#fffefe"/>
  <path d="M540.03,430.24c0-.08-.48-.69-.48-1.52-.12-22.05.34-44.12-.19-66.16l-103.75,141.17c-.55-4.94-1.24-9.87-1.79-14.79,34.84-48.05,70.12-95.79,105.52-143.43.55-10.52.1-21.06.23-31.58,0-.76-.29-1.99.46-2.46v118.76Z" fill="#fffefe"/>
  <path d="M114.28,475.06l1.79,13c-3.88,4.26-7.58,8.74-11.19,13.23-36.59,45.56-72.43,91.86-104.88,140.49v-17.93c6.52-8.41,12.25-17.47,18.46-26.13,29.84-41.62,62.18-81.43,94.19-121.38.48-.59.63-1.35,1.63-1.28Z" fill="#fffefe"/>
  <path d="M540.03,129.52v168.06l-.48-1.52-.19-20.44c-40.72,28.9-79.59,60.23-118.54,91.42-.44-3.86-.87-7.76-1.34-11.65,39.4-31.41,78.61-63.17,120.01-91.97-.17-43.5.56-87.05.11-130.55,0-.76.29-1.99-.46-2.46l.45-.9h.45Z" fill="#fffefe"/>
  <path d="M103.08,368.39L0,475.06v-10.76l102.18-106.22.41.71c.42,3.16.21,6.47.48,9.6Z" fill="#d7aed2"/>
  <polygon points="34.06 .45 0 49.75 0 .45 34.06 .45" fill="#f8deec"/>
  <path d="M43.02.45L0,62.74v-13L34.06.45c2.98,0,5.98,0,8.96,0Z" fill="#d7aed2"/>
  <polygon points="540.03 633.71 540.03 674.94 519.42 674.93 540.03 633.71" fill="#f8deec"/>
  <path d="M273.83,182.4c2.11,1.47,4.59,2.97,6.72,4.48,15.51,11.04,31.92,23.77,46.61,35.85,2.28,1.88,4.47,3.93,6.72,5.83,7.54,6.35,15.09,12.78,22.49,19.3,14.61,12.88,35.27,29.77,47.42,44.34,1.3,1.56,3.98,4.47,4.93,5.83,3.11,4.45,4.67,14.53,5.71,20.06,2.31,12.37,3.53,24.84,5.05,37.3.47,3.89.9,7.79,1.34,11.65,1.34,11.64,2.78,23.3,4.03,34.96.37,3.39.53,6.9.9,10.31,2.76,25.53,5.2,51.13,8.07,76.64.55,4.92,1.24,9.85,1.79,14.79.28,2.51,2.63,18.95,2.05,19.75-1.3.43-3.16.75-4.52.86-4.25.36-8.53.51-12.77.9-4.47.41-8.98.93-13.44,1.34-35.03,3.22-69.89,6.55-104.87,9.86-4.02.38-8.09.97-12.1,1.34-21.06,1.97-42.13,3.93-63.19,5.83-3.29.3-6.57.6-9.86.9-2.45.22-4.91.28-7.35.5-1.36.12-2.69.71-4.31.85-5.66.49-11.37.87-17.03,1.34-6.5.55-13.07.67-19.5,1.79l-44.97,3.08-7.68-64.02-1.79-13c-4.14-35.5-8.08-71.06-11.2-106.66-.27-3.13-.06-6.43-.48-9.6l-.41-.71c-.06-8.61-2.6-16.11-.78-24.76,1.66-7.92,6.72-15.34,11.36-21.8,8.12-11.29,17.55-21.67,25.95-32.72.35-1.54-6.54-12.37-7.68-14.78-.28-.6-.84-1-.61-1.85l13.22,11.19,24.77-28.12c-2.38-14.7-3.85-29.68-1.24-44.47.52-.5,5.29,2.92,6.06,3.58,2.13,1.79,4.37,4.59,6.27,6.73,3.23,3.62,6.02,7.69,9.4,11.2,9.15-9.28,18.04-18.89,27.27-28.07,6.33-6.29,12.73-12.99,19.33-18.99,1.58-1.44,9.24-8.11,10.58-8.67,1.88-.79,3.22-.69,5.05.23,6.37,3.2,13.69,10.67,20.13,14.38.55.78,2.11.93,2.57,1.25ZM242.01,178.37c-5.68,4.57-10.84,11.04-16.12,16.37-10.77,10.89-21.95,21.44-32.21,32.77l17.86,22.57,8.96,12.99c-.79-3.34-1.76-6.71-2.18-10.14-.97-7.83.16-18.4,1.74-26.16.82-4.04,5.83-18.86,10.2-19.65,2.02-.36,3.74,4.43,5.49,5.31.37,1.96,1.56,4.4,2.59,6.15.22.37-.13.75.76.57l10.99-12.99c1.37-.55,2.81-2.06,4.28-.92l11.63,15.7c4.12-5.23,5.89-4.07,9.87.45l2.67-3.12c1.55,1.63,2.36,2.72,3.26,4.81,5.89,13.63,2.66,34.37-5.81,46.42-6.71,9.54-18.16,13.15-29.5,13.08-.92.55-1.79,6.43-1.8,7.65-.06,4.97,2.61,8,4.25,12.32,8.11,21.41,15.94,44.17,21.76,66.31,2.05,7.8,3.27,15.96,5.7,23.67.24.76-.19,1.18,1.02.97.11-2.01-.13-4.06-.02-6.07.69-11.98.89-24.13,1.81-36.06.14-1.82.73-3.79.89-5.61.38-4.09-.41-10.49,2.69-13.22.04.11,1.28.69,1.67,1.69.66,1.67.75,4.92,1.01,6.83,1.98,14.32,4.04,28.81,6.72,43.02.21,1.12.77,2.4.9,3.58.24.18.65-.48.82-.74,3.77-5.56,8.19-14.05,11.21-20.16,1.19-2.41,5.7-11.43,5.88-13.41.06-.64-.16-1.36-.57-1.86-.74-.88-5.5-3.22-7-4.42-18.84-15.06-13.78-44.61.86-60.69,1.49-1.63,6.55-6.16,8.66-5.76.64.12,1.07.8,1.2.83l-.45,2.69c2.78.02,5.23-1.65,8.09-.7,1,1.05.3,4.72,1.97,4.74l14.14-7.18c1.67-.11,3.3-1.12,5.11.04,2.53,1.62,3.31,15.88,4.3,19.23.54.5,9.76-7.02,12.78-7.11,1.56-.04,2.19,1.59,2.43,2.88,3.81,20.82-13.42,55.54-36.11,58.85-1.88.27-4.9-.54-6.2.97-5.98,14.83-14.31,28.48-21.75,42.56-.45.85-1.33,1.74-1.59,2.68-.75,2.74,2.39,9.29,2.79,12.44.88,1.68,6.1.2,7.96.1,2.2-.11,4.57.21,6.73.01,8.72-.82,12.22-7.33,16.55-13.92,7.56-11.49,14.13-23.69,21.76-35.16,5.04-7.57,10.74-14.62,15.69-22.17,6-5.5,10.15-13.33,17.07-18.11,5.12-3.54,11.81-5.08,17.89-6.09,1.76-.29,3.57-.55,5.38-.45-3.22-15.81-15.32-25.64-26.43-36.08-33.32-31.29-67.92-61.41-105.18-87.98-7-4.99-16.57-12.55-23.84-16.5-3.65-1.98-6.37-2.16-10.09-.1-.71.39-.85,1.02-1.17,1.28ZM169.85,213.33c-.48,28.28,9.14,70.12,21.58,95.62,5.14,10.54,18.47,19.94,26.85,28.74,5.01,5.26,9.52,11.09,14.55,16.36.57-.28.04-1.24-.09-1.7-1.92-6.76-5.62-13.84-7.75-20.71-5.24-16.85-7.28-40.33-5.38-57.81.15-1.37,1.15-3.49,1.25-4.83.15-2.02-4.28-5.46-5.71-7.18-13.09-15.81-24.93-32.73-38.12-48.49-.92-1.09-5.72-7.33-6.49-7.17-1.23,1.8-.64,4.93-.68,7.17ZM252.31,209.29c-2.3.84-11.37,11.06-11.59,13.3-.1,1.01,4.33,3.87,5.33,4.83,1.14,1.09,2.1,4.22,3.56,2.04,3.07-4.59,4.31-7.94,8.96-11.65.1-.08.61.1.86-.02.19-.49-.02-.87-.2-1.3-.28-.67-4.45-6.78-4.92-7.18-1.14-.97-1.22-.3-2.01,0ZM228.56,213.78c-3.81,8.5-5.32,13.44-6.27,23.08-1.74,17.73,1.67,40.58,23.75,41,7.58.15,14.61-.73,20.83-5.39,1.52-1.14,4.61-4.16,5.16-5.82,3.46-3.66,5.65-9.98,6.87-14.87,2.37-9.52,1.69-18.06.75-27.71-1.74,1.28-2.44,4.29-3.58,5.83-7.01,9.44-22.93,21.32-25.77,32.71-.76,3.03-.55,5.95-1.35,8.95-.36,1.36-1.39,4.32-2.9,4.49-.13.02-.31.02-.45,0l-.45-21.73c.06-3.88-1.39-7.36-2.24-10.98-2.72-11.63-6.18-23.06-12.78-33.16-1.2-.56-1.46,3.35-1.56,3.58ZM258.59,222.29c-7.31,10.37-10.61,14.44-9.86,28.23.09,1.73.62,3.61.67,5.38,2.67-3.2,4.8-6.83,7.41-10.07,3.02-3.75,6.45-7.31,9.4-10.99.69-.86,2.34-1.21,2.25-2.87-.06-.97-1.77-4.08-2.7-4.75-.79-3.23-3.67-5.08-4.94-8.06-1.07-.74-1.9,2.66-2.23,3.13ZM269.67,221.01c-3.72,1.03.86,5.97,1.69,7.99,1.2-1.16,2.73-2.33,2.47-4.21-.19-1.33-2.56-4.22-4.16-3.78ZM246.93,240.22c1.8-4.29.83-8.31-3.58-10.3-.3.34,2.25,7.75,2.63,8.79.21.57.11,1.37.95,1.51ZM177.92,300.27l8.75,7.62.66-.66c-7.84-17.05-12.88-35.29-17.03-53.56-2.65,2.66-5.12,5.51-7.63,8.29-.34.37-.33,1.01-.43,1.12-.15.16-.87.22-1.19.58-4.15,4.56-8.34,9.15-12.23,13.94l29.11,22.68ZM229.01,276.07c-1.29-1.17-3.11-4.17-4.49-5.59-.43-.44-.59-.85-1.33-.68-2,27.26,1.04,55.31,12.55,80.22l.46-4.27c-.53-7.79-1.17-15.68-1.36-23.51-.28-11.38.28-22.72.9-34.06.13-2.4.86-4.82.36-7.31-.36-1.2-2.16-1.48-3.05-2.1-1.07-.75-3.21-1.94-4.03-2.69ZM154.17,294.45c7.05,10.29,14.21,21.41,21.97,31.14,18.38,23.04,43.77,38.8,64.78,59.15,10.12,9.8,19,20.81,26.82,32.54,1.19.87,1.52.37,2.5-.03.19-.08.62.07.89,0,.09-.51,0-.87-.23-1.33-1.19-2.36-4.2-5.61-5.78-8.11-9.66-15.27-17.9-29.92-29.4-44.1-2.02-2.49-11.6-14.05-13.43-15.02-18.8-22.14-42.14-40.02-64.98-57.81l-11.65-9.41c-.18.82.26,1.24.6,1.86,1.9,3.42,5.56,7.7,7.91,11.13ZM242.01,281.89h-2.69c-.68,15.7-1.47,31.54-.91,47.3.37,10.37,1.61,24.25,3.74,34.36.55,2.6.93,5.11,3.45,6.63-.77-7.24-2.01-14.48-2.68-21.74-1.45-15.86-1.71-31.63-1.33-47.48.15-6.36.16-12.72.43-19.07ZM340.15,284.14c-3.39.09-6.88,3.02-10.31,3.59l2.24,3.13,1.79,13.9c.65.68,6.97-2.19,8.07-2.24.7-.03,1.8.7,2.69.45.3-6.39-1.25-13.08-3.81-18.89-.5-.5-.64.06-.67.06ZM137.58,290.86c-3.47,3.93-6.99,7.95-10.28,12.01-8.41,10.37-19.11,21.31-21,34.96.53.28,1.05.62,1.62.84,3.06,1.18,11.41,2.79,14.87,3.29,13.24,4.61,22.88,12.16,32.95,21.49,18.63,17.26,37.01,37.2,56.68,53.13,5.06,4.1,7.33,5.45,14.14,5.17,6.93-.29,14.51-1.65,21.5-2.26.97-.08,5.13.37,5.14-.68-6.78-9-12.76-18.56-19.34-27.7-4.1-5.7-10.2-15.15-14.87-19.87-7.3-7.38-17.87-14.3-25.84-21.44-20.64-18.5-34.77-42.89-50.19-65.66l-5.37,6.72ZM317.3,349.57c5.66,1.7,7.62,1.8,13.44,0,8.78-2.72,13.93-8.99,18.56-16.62,6.73-11.08,10.96-23.63,11.01-36.71-.4-.45-3.47,1.87-4.03,2.24-5.57,3.61-10.78,8.1-15.69,12.55-5.65,5.12-11.21,10.62-15.6,16.89-4.07,5.81-7.09,12.26-10.4,18.51-1.25,1.23-.94-3.61-.89-4.03.72-5.8,4.07-8.97,4.03-16.13-.04-8.06-2.77-16.64-5.38-24.2-.4-2.24-1-4.49-1.34-6.72-.49-3.19-.5-6.44-.9-9.64-.28-2.22-1.14.42-1.41.81-6.28,9.26-11.05,17.05-12.82,28.43-2.57,16.56,5.53,29.84,21.4,34.62ZM318.53,286c-3.13.34-4.98,2.33-4.37,5.53.57,3.01,4.95-1.54,6.52-2.01.58-.89-.65-3.68-2.15-3.52ZM327.16,290.86c-3,1.27-5.71,2.27-8.52,4.03-1.33.84-3.42,1.59-3.11,3.74,1.91,9.46,5.22,18.8,5.36,28.53,1.17-.59,1.54-2.2,2.24-3.14,4.53-6.11,4.14-6.14,5.83-13.44.47-2.03,1.44-3.96,1.67-6.17.46-4.55-1.41-9.77-1.22-14.44-1.12-.39-1.71.67-2.24.9ZM244.25,311.92c.26,15.34.78,31.36,2.24,46.61.45,4.68.81,10.67,2.12,15.14,1.11,3.8,3.59,5.81,5.5,9.06,6.41,10.95,12.43,22.27,19.08,33.14,1.67,2.16,1.77,1.07,3.33.92,1.94-.18,3.87-.4,5.83-.45.45,0,.9.01,1.34,0,.6-.67-7.05-14.01-7.99-15.98-.34-.71-.86-1.39-1.42-1.94-4.8-16.83-8.62-33.94-13.58-50.73-4.64-15.7-10.2-31.07-15.56-46.52-.62-.67-.81.05-.89.66-.35,2.78-.05,7.13,0,10.09ZM339.25,306.55l-6.6,2.35-1.9,6.16c2.15-2.38,5.57-4.65,7.61-6.93.44-.49,1.09-.74.9-1.58ZM338.36,399.76c-3.81,5.72-7.95,11.69-13.44,15.91,4.42,3.91,9.36,7.22,13.88,10.98,28.8,23.91,57.55,49.6,85.15,74.84,1.71,1.56,3.05,3.91,5.37,4.93l-.89-4.93c-6.07-58.34-11.78-116.73-18.37-175.01-.11-.96.05-1.95,0-2.91-5.15,1.55-11.09,2.03-16.12,3.81-7.91,2.81-17.75,16.31-23.04,23.12-12.47,16.05-21.44,32.59-32.54,49.25ZM128.17,350.91c-6.5-3.14-13.26-6.05-20.61-6.72.32,1.93.72,4.12.89,6.05,2.97,33.94,6.45,67.87,10.31,101.73,3.18,27.88,6.94,55.73,10.31,83.59,1.18-.7,2.08-2.07,2.87-3.18,4.26-5.99,8.18-12.29,12.37-18.33,21.23-30.6,44.73-59.61,67.63-88.96-13.65-11.8-27.22-23.87-40.3-36.29s-26.69-29.77-43.47-37.88ZM282.34,359.43c-.17,2.65-.75,5.47-.9,8.07-.63,10.79-.7,21.65-1.29,32.44l1.74,5.65c.79.74,3.8-4.48,3.58-5.38,1.65-1.56,2.54-3.87,3.59-5.83.32-.6,1.86-1.33,1.36-2.89-2.64-14.08-5.57-28.12-7.19-42.37-.67.2-.84,2.31-.89,2.92-.19,2.43.15,4.96,0,7.39ZM317.3,354.06c-1.11-.21-1.94-.91-2.92-.01s-4.76,10.46-5.81,12.57c-7.07,14.17-15.45,27.66-24.1,40.91-.72,1.77.67,4.51,2.54,2.52,1.3-1.39,3.71-5.71,4.93-7.62,9.75-15.35,18.16-31.67,25.36-48.36ZM255.58,418.45c.77.65,5.62.34,6.82.13.59-.1,1.2-.36,1.08-1.07-5.29-7.17-10.71-14.34-16.76-20.9-2.75-2.98-7.5-8.16-10.53-10.53-.66-.52-1.32-1.21-2.25-1.11l21.64,33.47ZM291.75,409.62c-.39.57-4.86,5.09-4.03,5.82,1.57-.09,3.17.13,4.74.02.6-.04.96-.45,1.08-.47.83-.12,1.83.09,2.69,0l-2.25-9.41c-1.12.69-1.64,3.15-2.24,4.03ZM356.29,444.58c-5.55-6.27-20.84-18-28.02-23.29-3.43-2.53-4.7-3.93-9.35-3.54-7.89.67-16.61,2.64-24.71,3.52-23.84,2.6-51.07,5.5-74.83,5.86-2.26.04-4-.88-6.19-.95-4.03,5.79-8.35,11.44-12.68,17.01-19.47,25.08-38.14,49.16-56.21,75.33-4.64,6.73-9.71,13.22-14.22,20.06-1.17,2.16-.16,4.28-.04,6.53l.34.55c.92.67,5.51-.57,6.98-.7,36.77-3.18,73.54-6,110.24-9.42,59.54-5.54,119.07-12.33,178.59-17.48,1.46-.13,3.01.09,4.48,0,.58-7.06-1.93-8.74-6.28-13-1.34-1.31-2.73-2.36-4.03-3.59-6.02-5.69-12.8-12.99-19.27-17.93-.16-.13-.28-.34-.45-.45-.4-.27-.57-.29-.9-.45-.31-.85-1.58-2.33-2.21-2.93-12.03-11.35-27.18-24.31-40.36-34.27-.16-.12-.3-.31-.45-.45-.14-.16-.31-.29-.45-.45Z" fill="#515667"/>
  <path d="M488.49.45c-73.43,57.4-141.48,121.23-207.95,186.44-2.13-1.52-4.61-3.01-6.72-4.48,59.32-57.67,119.24-114.97,183.53-167.15,6.04-4.91,12.53-9.46,18.14-14.8,4.33,0,8.67-.02,13,0Z" fill="#d7aed2"/>
  <path d="M327.49,69.13c2.48-.43,4.34.07,6.36,1.49,8.09,5.66,1.81,17.95-7.69,14.86-8.05-2.62-6.94-14.93,1.32-16.35Z" fill="#fffefe"/>
  <path d="M276.39,134.1c7.24-1.49,11.53,8.88,4.76,12.83-9.15,5.34-15.3-10.66-4.76-12.83Z" fill="#fffefe"/>
  <path d="M50.51,378.35c6.36-1.47,8.69,6.85,3.53,8.9-6.74,2.67-9.4-7.54-3.53-8.9Z" fill="#fffefe"/>
  <path d="M79.65,158.3c8.85-1.81,15.63,8.24,8.64,14.47-7.02,6.26-17.3-2.13-13.63-10.49.76-1.73,3.15-3.61,4.98-3.98Z" fill="#fffefe"/>
  <path d="M200.68,44.91c7.91-.78,10.87,10.36,3.54,13.43-10.36,4.35-13.67-12.44-3.54-13.43Z" fill="#fffefe"/>
  <path d="M133.87,122.89c11.01-2.5,12.67,13.57,2.14,13.38-4.81-.09-8.32-4.91-6.27-9.45.56-1.23,2.83-3.64,4.13-3.94Z" fill="#fffefe"/>
  <path d="M403.79,292.2l134.9-174.78.89.22v11.87s-.45.9-.45.9l-130.41,167.61c-.95-1.36-3.63-4.27-4.93-5.83Z" fill="#d7aed2"/>
  <path d="M473.13,140.37c5.05-1.14,8.67,1.65,8.22,6.87-.63,7.33-12.9,6.92-12.12-1.81.18-2,1.9-4.61,3.91-5.06Z" fill="#fffefe"/>
  <path d="M417.11,189.67c7-1.6,7.77,7.3,2.49,8.32-5.82,1.13-6.81-7.33-2.49-8.32Z" fill="#fffefe"/>
  <path d="M73.38,441.55c9.13-1.9,11.17,11.38,2.93,12.79-8.87,1.52-10.29-11.26-2.93-12.79Z" fill="#fffefe"/>
  <path d="M539.58,445.03c0,.15,0,.3,0,.45-1.02-.23-.94.57-1.33,1.11-38.9,53.8-77.44,105.43-110.26,163.37-5.98,10.55-12.65,20.89-17.03,32.27-.85,1.05-1.29,2.09-1.87,3.28-4.47,9.11-7.68,19.52-9.78,29.43-2.68,0-5.38.01-8.07,0,.66-5.19,2.03-10.26,3.59-15.24,2.59-8.32,6.53-17.23,10.31-25.1,4.2-8.75,9.07-17.38,13.82-25.85,34.83-62.18,77.96-119.72,120.18-176.95.69-.62.44.45.45.9.12,4.1-.02,8.23,0,12.33Z" fill="#d7aed2"/>
  <path d="M487.48,453.2c7.42-1.5,9.23,9.22,3.73,10.9-9.11,2.8-10.83-9.47-3.73-10.9Z" fill="#fffefe"/>
  <path d="M387.08,606.01c.82-.24,3.03-.24,3.85,0,3.44,1.01,3.44,9.62-3.38,7.86-3.61-.93-3.26-7.04-.47-7.86Z" fill="#fffefe"/>
  <path d="M63.96,594.82c8.27-1.69,9.1,10.81,1.29,10.61-6.26-.16-7.08-9.42-1.29-10.61Z" fill="#fffefe"/>
  <path d="M424.86,402c34.64-32.08,69.18-64.37,105.31-94.79,2.56-2.15,5.46-4.74,8.07-6.72.45-.34.56-.87,1.35-.67v10.08c-39.19,32.72-76.85,67.24-113.83,102.41-.37-3.41-.53-6.92-.9-10.31Z" fill="#d7aed2"/>
  <path d="M461.47,384.62c4.96-1.48,8.29,5.64,3.84,7.87-5.86,2.93-8.18-6.57-3.84-7.87Z" fill="#fffefe"/>
  <path d="M40.22,39.52c6.48-1.13,7.03,9.5.39,8.86-5.01-.49-5.31-8-.39-8.86Z" fill="#fffefe"/>
  <path d="M419.03,674.94c26.67-17.82,50.86-39.06,74.85-60.27,14.97-13.23,29.6-26.88,44.36-40.34l1.35-.67v10.53c-34.04,30.44-67.37,62.32-104.21,89.42-.53.39-1.34.32-1.11,1.33-5.07,0-10.16,0-15.24,0Z" fill="#d7aed2"/>
  <path d="M504.51,558.97c13.45-2.24,14.39,19.42-.07,17.33-9.05-1.31-9.47-15.74.07-17.33Z" fill="#fffefe"/>
  <path d="M488.49.45c3.68.01,8.89-.46,12.33,0,.62.08.78-.25.66.67-27.23,42.47-58.22,82.4-90.09,121.45-26.46,32.42-53.73,64.27-81.09,95.93-1.06,1.23-2.53,2.77-3.15,4.25-14.69-12.08-31.1-24.82-46.61-35.85C347.01,121.68,415.07,57.84,488.49.45Z" fill="#f8deec"/>
  <path d="M209.74.45c-9.51,8.6-19.86,16.46-29.79,24.66C125.07,70.44,71.86,117.77,17.03,163.13c-.12-.93.32-1.47.71-2.2,4.95-9.45,12.15-19.97,17.93-29.13C64.18,86.63,94.71,42.7,127.92.86l1.8-.44c26.67.04,53.35.05,80.02.03Z" fill="#f8deec"/>
  <path d="M311.47.45c19.51,0,40.52-.99,59.84,0,.51.03,1.23-.29,1.11.44-33,21.78-64.78,45.44-96.31,69.29l-53.82,42.31c5.31-6.55,10.76-13.32,16.12-19.96,24.63-30.47,49.06-61.12,73.06-92.09Z" fill="#f8deec"/>
  <path d="M406.93,526.6c-33.31,48.28-66.44,96.8-95.01,148.12l-141.62.23,131.76-138.48c34.98-3.31,69.84-6.64,104.87-9.86ZM315.4,568.39c-10.22.4-9.53,16.02,1.22,15.12,9.2-.77,8.73-15.52-1.22-15.12ZM296.12,620.79c-7,1.22-3.43,12.8,3.21,9.07,4.73-2.66,1.93-9.97-3.21-9.07Z" fill="#f8deec"/>
  <path d="M216.91,544.52c-9.05,13.12-18.28,26.15-27.17,39.38-10.56,15.72-21.41,31.9-31.27,48.05-8.46,13.85-16.76,28.04-23.12,42.99l-93.66-.22c56.36-40.56,110.19-84.51,163.58-128.85,1.61-.14,2.94-.73,4.31-.85,2.44-.21,4.9-.28,7.35-.5Z" fill="#f8deec"/>
  <path d="M289.96,537.8c-5.29,6.5-11.51,12.26-17.26,18.37-37.7,40.02-74.62,80.9-114.5,118.77-4.77,0-9.57,0-14.34,0,6.07-13.71,13.92-27.05,21.77-39.85,19.17-31.25,40.72-61.04,61.14-91.46,21.06-1.9,42.13-3.85,63.19-5.83ZM235.15,575.54c-4.33,1-4.86,8.16-.34,9.56,4.34,1.35,7.89-2.21,6.55-6.55-.76-2.45-3.83-3.56-6.2-3.02Z" fill="#f8deec"/>
  <path d="M302.06,536.45l-131.76,138.48h-12.1c39.88-37.87,76.8-78.75,114.5-118.77,5.75-6.11,11.97-11.87,17.26-18.37,4.01-.38,8.08-.96,12.1-1.34Z" fill="#d7aed2"/>
  <path d="M226.77,543.63c-20.41,30.42-41.97,60.21-61.14,91.46-7.85,12.8-15.7,26.14-21.77,39.85-2.83,0-5.68,0-8.52,0,6.36-14.94,14.66-29.13,23.12-42.99,9.86-16.15,20.71-32.33,31.27-48.05,8.89-13.23,18.12-26.26,27.17-39.38,3.29-.29,6.57-.6,9.86-.9Z" fill="#d7aed2"/>
  <path d="M394.83,659.7c-1.55,4.97-2.93,10.05-3.59,15.24-3.55-.02-7.51.25-10.99,0-.67-.05-1.3.35-1.11-.67l15.68-14.57Z" fill="#f8deec"/>
  <path d="M539.58,445.48c.05,15.67.15,31.38-.23,47.05-35,37.3-69.77,74.83-105.07,111.84-1.82,1.91-3.99,4.4-6.29,5.59,32.81-57.94,71.36-109.57,110.26-163.37.39-.54.32-1.34,1.33-1.11Z" fill="#f8deec"/>
  <path d="M539.14,130.42c.74.47.45,1.7.46,2.46.46,43.5-.28,87.05-.11,130.55-41.39,28.79-80.61,60.56-120.01,91.97-1.52-12.46-2.74-24.93-5.05-37.3-1.03-5.53-2.6-15.62-5.71-20.06l130.41-167.61ZM491.51,243.91c-8.12,1.65-4.44,14.67,3.37,13.24,8.53-1.56,6.39-15.23-3.37-13.24Z" fill="#f8deec"/>
  <path d="M144.31,518.53c18.06-26.17,36.74-50.25,56.21-75.33,4.33-5.58,8.64-11.22,12.68-17.01,2.19.07,3.93.99,6.19.95,23.76-.37,50.99-3.26,74.83-5.86,8.1-.88,16.82-2.86,24.71-3.52,4.64-.39,5.92,1.01,9.35,3.54,7.18,5.29,22.47,17.02,28.02,23.29.12.17.3.3.45.45s.29.33.45.45c.24,2.03,2.78,3.98,4.25,5.39,8.59,8.26,28.46,26.92,38.33,31.81.33.16.49.18.9.45.14.16.28.32.45.45,6.47,4.93,13.25,12.24,19.27,17.93-.62.59-1.7.74-2.52.84-43.52,5.6-86.82,12.41-130.36,17.98-41.66,5.33-86.69,12.76-128.6,11.19-2.63-.1-8.12.53-10.23-.08-.66-.19-1.3-.96-1.55-1.59-1.27-3.21-1.39-7.99-2.81-11.31Z" fill="#cfeaec"/>
  <path d="M242.01,178.37c-.26,1.36.66.79,1.48.96,17.88,3.63,38.27,22.85,52.51,34.46,37.03,30.21,71.53,60.71,103.54,96.34,2.1,2.33,5.2,4.8,3.8,8.07-6.08,1.01-12.76,2.55-17.89,6.09-6.92,4.78-11.07,12.61-17.07,18.11-13.93,12.77-24.7,25.5-37.42,39.44-2.27,2.49-12.37,14.04-14.46,14.67-1.54.46-6.19,1.18-8,1.41-3.26.42-6.75.5-10.04.49,7.44-14.08,15.77-27.74,21.75-42.56,1.31-1.51,4.33-.69,6.2-.97,22.69-3.31,39.92-38.02,36.11-58.85-.24-1.29-.87-2.92-2.43-2.88-3.03.09-12.24,7.6-12.78,7.11-1-3.35-1.78-17.61-4.3-19.23-1.81-1.16-3.44-.15-5.11-.04-3.16.21-6.39.37-9.52,1.01-2,.41-4.16,1.87-6.16,1.46,1.21-.76,1.03-1.97-.32-2.37-2.48-.74-5.95.83-7.75.36-.13-.04-.56-.71-1.2-.83-2.11-.4-7.17,4.13-8.66,5.76-1.02-.17-1.37.33-2.03.88-10.97,9.11-18.51,23.07-19.47,37.44-.08,1.17-.23,7.24,0,7.84-3.1,2.73-2.32,9.13-2.69,13.22-.17,1.81-.75,3.79-.89,5.61-5.13,4.4-6.18,11.48-8.52,17.48-5.82-22.14-13.64-44.89-21.76-66.31-1.64-4.33-4.31-7.35-4.25-12.32.01-1.22.89-7.1,1.8-7.65,11.34.07,22.79-3.54,29.5-13.08,8.47-12.05,11.69-32.79,5.81-46.42-.9-2.09-1.71-3.18-3.26-4.81l-2.67,3.12c-3.99-4.51-5.76-5.68-9.87-.45l-11.63-15.7c-1.47-1.14-2.91.37-4.28.92-6-.85-9.83,3.24-14.34,6.27-1.75-.88-3.47-5.67-5.49-5.31-4.37.79-9.38,15.61-10.2,19.65-3.42.14-5.12,4.28-6.17,7.05-1.95,5.15-2.53,10.75-2.35,16.25l-17.86-22.57c10.26-11.33,21.44-21.88,32.21-32.77,5.28-5.33,10.44-11.8,16.12-16.37Z" fill="#cfe9eb"/>
  <path d="M338.36,399.76c.83.97,2.86-1.69,3.37-2.23,5.36-5.83,11.38-12.49,16.34-18.62,10.1-12.48,22.46-35.22,34.82-44.06,1.75-1.25,6.36-4.13,8.22-4.79.58-.21.66-.39,1.13.22.84,9.02,1.4,18.08,2.51,27.07,2.35,19.08,6.39,37.96,8.85,57.03,1.73,13.39,2.58,26.87,4.09,40.28,1.41,12.57,3.24,25.11,4.93,37.64l-83.15-67.44-.67,1.79c-4.53-3.76-9.47-7.07-13.88-10.98,5.48-4.22,9.63-10.19,13.44-15.91Z" fill="#cfeaec"/>
  <path d="M128.17,350.91c16.78,8.1,29.93,25.02,43.47,37.88s26.65,24.49,40.3,36.29c-22.9,29.36-46.4,58.37-67.63,88.96-1.07.23-.98-.49-1.23-1.21-4.52-12.72-5.44-33.65-6.84-47.41-3.68-36.21-5.99-72.53-8.06-108.91-.11-1.86.06-3.74,0-5.6Z" fill="#cfe9eb"/>
  <path d="M420.37,501.5c1.3,1.23,2.7,2.28,4.03,3.59l1.79,13c-59.53,5.15-119.06,11.94-178.59,17.48-36.7,3.42-73.47,6.24-110.24,9.42-1.48.13-6.07,1.37-6.98.7l-.34-.55c-.12-2.25-1.13-4.37.04-6.53,4.51-6.84,9.58-13.33,14.22-20.06,1.42,3.32,1.53,8.1,2.81,11.31.25.63.89,1.4,1.55,1.59,2.11.61,7.6-.02,10.23.08,41.91,1.57,86.94-5.86,128.6-11.19,43.54-5.57,86.84-12.37,130.36-17.98.82-.11,1.9-.26,2.52-.84Z" fill="#acdde0"/>
  <path d="M137.58,290.86c.66.31,1.1.82,1.53,1.38,7.21,9.24,13.94,20.45,20.96,30.14,4.93,6.81,14.81,22.17,21.01,26.49,1.78,1.24,4.02,2.04,5.76,3.2,12.76,8.54,23.56,18.99,32.94,31.15,6.35,8.24,11.95,17.17,18.19,25.5-4.83-.17-9.94,1.24-14.68.56-24.81-22.4-47.1-49.09-79.05-61.67-7.69-3.03-13.64-4.54-21.45-5.66-3.47-.5-11.81-2.1-14.87-3.29-.56-.22-1.09-.56-1.62-.84,1.89-13.65,12.59-24.59,21-34.96,3.3-4.06,6.81-8.08,10.28-12.01Z" fill="#cfeaec"/>
  <path d="M128.17,350.91c.07,1.86-.1,3.74,0,5.6,2.07,36.38,4.38,72.7,8.06,108.91,1.4,13.76,2.31,34.7,6.84,47.41.25.72.16,1.44,1.23,1.21-4.19,6.04-8.11,12.35-12.37,18.33-.79,1.11-1.69,2.47-2.87,3.18-3.37-27.86-7.12-55.7-10.31-83.59-3.87-33.85-7.34-67.79-10.31-101.73-.17-1.93-.57-4.12-.89-6.05,7.35.67,14.12,3.58,20.61,6.72Z" fill="#acdde0"/>
  <path d="M137.58,290.86l5.37-6.72c15.42,22.77,29.55,47.15,50.19,65.66,7.97,7.14,18.55,14.06,25.84,21.44,4.66,4.71,10.76,14.17,14.87,19.87,6.58,9.14,12.57,18.7,19.34,27.7,0,1.04-4.17.59-5.14.68-6.99.61-14.57,1.96-21.5,2.26-6.81.29-9.08-1.07-14.14-5.17-19.66-15.93-38.05-35.88-56.68-53.13-10.07-9.33-19.71-16.89-32.95-21.49,7.81,1.12,13.76,2.63,21.45,5.66,31.95,12.58,54.24,39.27,79.05,61.67,4.73.68,9.84-.73,14.68-.56-6.24-8.33-11.84-17.26-18.19-25.5-9.37-12.16-20.18-22.61-32.94-31.15-1.74-1.16-3.98-1.97-5.76-3.2-6.2-4.33-16.08-19.69-21.01-26.49-7.02-9.68-13.75-20.89-20.96-30.14-.44-.56-.88-1.07-1.53-1.38Z" fill="#acdcdf"/>
  <path d="M338.36,399.76c11.1-16.66,20.07-33.2,32.54-49.25,5.29-6.81,15.13-20.31,23.04-23.12,5.04-1.79,10.97-2.27,16.12-3.81.06.96-.1,1.95,0,2.91,6.59,58.28,12.3,116.67,18.37,175.01h-4.48c-27.6-25.24-56.35-50.93-85.15-74.84l.67-1.79,83.15,67.44c-1.7-12.53-3.52-25.08-4.93-37.64-1.51-13.41-2.36-26.89-4.09-40.28-2.46-19.07-6.51-37.95-8.85-57.03-1.11-8.99-1.67-18.05-2.51-27.07-.47-.6-.56-.42-1.13-.22-1.85.66-6.47,3.54-8.22,4.79-12.36,8.84-24.72,31.57-34.82,44.06-4.96,6.13-10.98,12.79-16.34,18.62-.5.55-2.54,3.21-3.37,2.23Z" fill="#e2f0f0"/>
  <path d="M219.6,273.83c-1.9,17.48.14,40.96,5.38,57.81-.94.07-1.69-1.36-2.22-2.04-27.88-35.77-39.73-63.16-45.73-108.66,15.78,16.27,27.73,35.82,42.58,52.88Z" fill="#7dc575"/>
  <path d="M176.57,218.7c.07.83.35,1.51.45,2.24,6,45.5,17.85,72.89,45.73,108.66.53.68,1.28,2.11,2.22,2.04,2.14,6.87,5.83,13.95,7.75,20.71.13.46.66,1.42.09,1.7-5.03-5.28-9.54-11.1-14.55-16.36-8.38-8.8-21.71-18.2-26.85-28.74-12.43-25.5-22.06-67.34-21.58-95.62l6.72,5.38Z" fill="#56b961"/>
  <path d="M242.01,178.37c.32-.26.46-.89,1.17-1.28,3.72-2.06,6.44-1.88,10.09.1,7.27,3.94,16.83,11.5,23.84,16.5,37.26,26.57,71.86,56.69,105.18,87.98,11.12,10.44,23.22,20.27,26.43,36.08-1.8-.1-3.61.16-5.38.45,1.39-3.28-1.71-5.74-3.8-8.07-32.01-35.63-66.51-66.13-103.54-96.34-14.23-11.61-34.62-30.82-52.51-34.46-.82-.17-1.75.4-1.48-.96Z" fill="#e2f0f0"/>
  <path d="M162.23,299.37c1.32,1.93,5.25,6.14,7.17,7.62.27,2.74,3.25,4.88,4.92,6.96,5.34,6.66,10.08,13.64,16.83,19.02,7.15,5.71,15.21,9.1,23.96,11.66,1.13,1.24,1.7,2.01,3.14,2.69l51.99,69.91c-.98.4-1.31.9-2.5.03-7.82-11.73-16.7-22.75-26.82-32.54-21.02-20.34-46.4-36.11-64.78-59.15-7.76-9.72-14.92-20.84-21.97-31.14,3.02,1.01,4.99,4.28,8.07,4.93Z" fill="#56b961"/>
  <path d="M368.39,342.4c-4.96,7.55-10.66,14.61-15.69,22.17-7.63,11.46-14.21,23.66-21.76,35.16-4.33,6.59-7.83,13.1-16.55,13.92-2.17.2-4.54-.12-6.73-.01-1.87.1-7.08,1.58-7.96-.1-.4-3.16-3.54-9.7-2.79-12.44.26-.94,1.14-1.83,1.59-2.68,3.29.01,6.78-.07,10.04-.49,1.81-.24,6.46-.95,8-1.41,2.09-.63,12.19-12.17,14.46-14.67,12.71-13.94,23.48-26.68,37.42-39.44Z" fill="#acdcdf"/>
  <path d="M356.29,298.48c.2,11.14-2.9,22.35-8.77,31.78-4.55,7.3-11.12,12.91-16.77,19.31-5.83,1.8-7.79,1.7-13.44,0-.34-2.04.54-3.39,1.43-5.07,4.81-9.08,13.67-18.44,19.1-27.51,1.07-1.78,2.07-4,2.77-5.97,4.91-4.45,10.12-8.94,15.69-12.55Z" fill="#9d9ecd"/>
  <path d="M272.03,266.66c-.55,1.66-3.64,4.68-5.16,5.82-6.22,4.66-13.25,5.53-20.83,5.39v-1.79c1.51-.17,2.54-3.13,2.9-4.49.8-3.01.6-5.92,1.35-8.95,2.84-11.39,18.76-23.27,25.77-32.71v17.25c-.95,6.55-1.93,13.21-4.03,19.5Z" fill="#9d9ecd"/>
  <path d="M317.3,349.57c-15.87-4.77-23.96-18.06-21.4-34.62,1.76-11.38,6.54-19.17,12.82-28.43.27-.4,1.13-3.04,1.41-.81.4,3.2.41,6.45.9,9.64-6.52,12.31-5.34,30.11.06,42.74.6,1.39,1.44,3.35,2.63,4.32-.05.42-.36,5.26.89,4.03,3.31-6.25,6.33-12.71,10.4-18.51,4.4-6.27,9.96-11.77,15.6-16.89-.7,1.97-1.7,4.19-2.77,5.97-5.44,9.06-14.29,18.43-19.1,27.51-.89,1.68-1.78,3.03-1.43,5.07Z" fill="#7e83bd"/>
  <path d="M270.69,392.59l-24.2-34.06c-1.46-15.25-1.99-31.27-2.24-46.61.7.62,1.16,1.41,1.56,2.25,4.3,9.15,9.22,21.09,12.34,30.68,5.02,15.45,7.46,32.57,12.54,47.74Z" fill="#7dc575"/>
  <path d="M304.3,286.38c-14.64,16.08-19.7,45.63-.86,60.69,1.5,1.2,6.26,3.54,7,4.42.41.49.63,1.22.57,1.86-.18,1.98-4.69,11.01-5.88,13.41-3.02,6.11-7.44,14.61-11.21,20.16-.18.26-.58.92-.82.74-.13-1.18-.69-2.46-.9-3.58,1.08.03,1.18-.59,1.57-1.34,1.88-3.59,4.26-9.3,5.69-13.13,1.16-3.11,3.76-10.45,3.49-13.49-.2-2.25-6.48-4.95-8.28-6.54l-9.19-8.51c-.26-1.9-.36-5.16-1.01-6.83-.39-1-1.63-1.58-1.67-1.69-.22-.59-.07-6.67,0-7.84.96-14.37,8.5-28.34,19.47-37.44.66-.55,1.02-1.05,2.03-.88Z" fill="#a9dadd"/>
  <path d="M234.84,322.23c.19,7.83.83,15.72,1.36,23.51l-.46,4.27c-11.51-24.9-14.55-52.95-12.55-80.22.75-.17.91.24,1.33.68,1.38,1.42,3.2,4.42,4.49,5.59.52,8,.88,15.96,1.85,23.92.91,7.46,2.24,14.94,3.98,22.24Z" fill="#56b961"/>
  <path d="M229.01,215.57c1.55.45,2.58,3.58,3.22,5.07,5.7,13.31,7.14,27.95,10.23,41.99h1.34c1.21-6.58-.31-12.76-.89-19.27.85,3.62,2.29,7.1,2.24,10.98l.45,21.73c-1.22-.17-2.3-1.55-3.12-2.48-15.46-17.3-16.62-36.22-13.46-58.02Z" fill="#9d9ecd"/>
  <path d="M229.01,215.57c-3.16,21.8-2,40.73,13.46,58.02.83.92,1.9,2.31,3.12,2.48.13.02.31.02.45,0v1.79c-22.08-.43-25.49-23.27-23.75-41,.95-9.65,2.46-14.58,6.27-23.08.03.52.51,1.37.45,1.79Z" fill="#7e83bd"/>
  <path d="M246.49,358.53l24.2,34.06c.85,2.55,2.34,4.05,3.14,5.83.5,1.11.75,2.83,1.41,4.19,2.23,4.66,4.84,9.1,7.11,13.73-1.95.04-3.89.26-5.83.45-5.28-8.95-10.75-18.02-16.57-26.68-1.78-2.65-3.37-5.34-5.84-7.39-1.91-3.26-4.39-5.26-5.5-9.06-1.3-4.47-1.67-10.45-2.12-15.14Z" fill="#56b961"/>
  <path d="M162.23,263.07c.1-.11.1-.75.43-1.12,2.51-2.78,4.98-5.63,7.63-8.29,4.15,18.28,9.19,36.51,17.03,53.56l-.66.66-8.75-7.62c.12-.9-.14-1.61-.49-2.42-3.19-7.28-7.65-14.11-10.79-21.48-1.79-4.2-3.61-8.81-4.4-13.3Z" fill="#a9dadd"/>
  <path d="M285.48,341.05l9.19,8.51c1.8,1.59,8.08,4.3,8.28,6.54.27,3.04-2.34,10.38-3.49,13.49-1.43,3.84-3.81,9.55-5.69,13.13-.39.75-.49,1.38-1.57,1.34-2.68-14.22-4.74-28.7-6.72-43.02Z" fill="#cfe9eb"/>
  <path d="M177.92,300.27l-29.11-22.68c3.89-4.79,8.09-9.38,12.23-13.94.33-.36,1.05-.42,1.19-.58.79,4.49,2.62,9.09,4.4,13.3,3.13,7.37,7.6,14.2,10.79,21.48.35.8.62,1.52.49,2.42Z" fill="#cfe9eb"/>
  <path d="M312.37,302.06c.99,5.55,2.04,11.17,3.26,16.69.53,2.41,1.13,5.28,2.12,7.52.03,7.16-3.31,10.34-4.03,16.13-1.19-.97-2.03-2.93-2.63-4.32-5.4-12.62-6.58-30.43-.06-42.74.34,2.23.95,4.49,1.34,6.72Z" fill="#9d9ecd"/>
  <path d="M177.02,213.33c13.19,15.76,25.03,32.68,38.12,48.49,1.43,1.73,5.86,5.17,5.71,7.18-.1,1.34-1.1,3.45-1.25,4.83-14.84-17.06-26.79-36.62-42.58-52.88-.1-.73-.38-1.41-.45-2.24-.12-1.56-.28-4.14.45-5.38Z" fill="#bcd9aa"/>
  <path d="M222.29,348.67c1.83.97,11.41,12.53,13.43,15.02,11.5,14.18,19.74,28.83,29.4,44.1,1.58,2.5,4.59,5.75,5.78,8.11.23.46.32.82.23,1.33-.27.08-.7-.07-.89,0l-51.99-69.91c1.1.52,3.11.85,4.03,1.34Z" fill="#8ec77a"/>
  <path d="M157.3,290.86c22.84,17.79,46.19,35.67,64.98,57.81-.92-.49-2.93-.82-4.03-1.34-1.43-.68-2.01-1.45-3.14-2.69-5.18-5.66-8.99-10.57-15.02-15.67-9.63-8.15-20.79-14.34-30.69-21.97-1.92-1.48-5.85-5.69-7.17-7.62-1.81-2.65-3.27-5.76-4.93-8.52Z" fill="#bcd9aa"/>
  <path d="M242.01,281.89c-.27,6.35-.28,12.71-.43,19.07-.38,15.85-.12,31.63,1.33,47.48.67,7.26,1.91,14.5,2.68,21.74-2.52-1.52-2.9-4.03-3.45-6.63-2.12-10.11-3.37-23.99-3.74-34.36-.56-15.76.23-31.61.91-47.3h2.69Z" fill="#b4cda0"/>
  <path d="M244.25,311.92c-.05-2.96-.35-7.31,0-10.09.08-.62.27-1.34.89-.66,5.36,15.45,10.92,30.82,15.56,46.52,4.96,16.79,8.77,33.9,13.58,50.73h-.45c-.79-1.78-2.28-3.28-3.14-5.83-5.08-15.17-7.52-32.29-12.54-47.74-3.12-9.59-8.04-21.53-12.34-30.68-.4-.84-.86-1.63-1.56-2.25Z" fill="#b5d3a7"/>
  <path d="M317.3,354.06c-7.2,16.69-15.61,33.01-25.36,48.36-1.21,1.91-3.62,6.23-4.93,7.62-1.87,2-3.26-.74-2.54-2.52,8.64-13.25,17.03-26.74,24.1-40.91,1.05-2.11,4.86-11.69,5.81-12.57s1.81-.2,2.92.01Z" fill="#b4cda0"/>
  <path d="M265.76,227.22c.93.67,2.64,3.78,2.7,4.75.1,1.66-1.56,2.01-2.25,2.87l-2-2.26c-6.79,4.42-11.01,11.42-15.47,17.95-.75-13.8,2.55-17.87,9.86-28.23l6.06,8.51c1.83-.58,1.43-2.29,1.12-3.58Z" fill="#9d9ecd"/>
  <path d="M279.2,351.36c-.92,11.93-1.12,24.08-1.81,36.06-.12,2.01.12,4.06.02,6.07-1.21.21-.78-.21-1.02-.97-2.43-7.71-3.65-15.87-5.7-23.67,2.33-6,3.38-13.08,8.52-17.48Z" fill="#a9dadd"/>
  <path d="M255.58,418.45l-21.64-33.47c.93-.1,1.59.59,2.25,1.11,3.03,2.37,7.78,7.56,10.53,10.53,6.05,6.55,11.47,13.72,16.76,20.9.11.71-.49.97-1.08,1.07-1.2.2-6.05.52-6.82-.13Z" fill="#56b961"/>
  <path d="M356.29,298.48c.56-.36,3.64-2.69,4.03-2.24-.05,13.08-4.28,25.63-11.01,36.71-4.64,7.63-9.78,13.9-18.56,16.62,5.65-6.39,12.22-12,16.77-19.31,5.88-9.44,8.97-20.64,8.77-31.78Z" fill="#c7c5dd"/>
  <path d="M242.9,243.35c.58,6.52,2.11,12.69.89,19.27h-1.34c-3.09-14.03-4.53-28.68-10.23-41.99-.64-1.5-1.66-4.62-3.22-5.07.06-.43-.42-1.27-.45-1.79.1-.23.37-4.14,1.56-3.58,6.6,10.1,10.06,21.53,12.78,33.16Z" fill="#c7c5dd"/>
  <path d="M327.16,290.86c-.45,2.9.6,5.95.45,8.73-.31,5.42-3.01,11.68-3.13,17.27,2.13-1.4,2.44-4.67,4.48-6.27-1.69,7.31-1.29,7.34-5.83,13.44l-4.48-29.13c2.8-1.77,5.52-2.76,8.52-4.03Z" fill="#9d9ecd"/>
  <path d="M220.05,226.77c-1.58,7.77-2.71,18.33-1.74,26.16.42,3.42,1.39,6.79,2.18,10.14l-8.96-12.99c-.18-5.5.39-11.1,2.35-16.25,1.05-2.78,2.75-6.91,6.17-7.05Z" fill="#a9dadd"/>
  <path d="M233.04,278.76c.62,3.05,1.17,6.72,2.69,9.41-.61,11.34-1.17,22.68-.9,34.06-1.74-7.3-3.06-14.78-3.98-22.24-.97-7.96-1.33-15.92-1.85-23.92.82.75,2.96,1.94,4.03,2.69Z" fill="#7dc575"/>
  <path d="M272.03,266.66c2.1-6.29,3.09-12.95,4.03-19.5v-17.25c1.14-1.54,1.84-4.55,3.59-5.83.94,9.64,1.62,18.19-.75,27.71-1.22,4.89-3.41,11.2-6.87,14.87Z" fill="#c7c5dd"/>
  <path d="M340.15,287.72c.52,4.89,1.79,9.81,1.79,14.79-1.09.05-7.42,2.93-8.07,2.24l-1.79-13.9c2.92,0,5.2-2.69,8.07-3.14Z" fill="#9d9ecd"/>
  <path d="M252.31,209.29c1.05.13.72,1.54.9,1.79-1.88,5.94-4.16,12.03-3.59,18.37-1.46,2.18-2.42-.94-3.56-2.04-1-.96-5.43-3.82-5.33-4.83.22-2.24,9.29-12.45,11.59-13.3Z" fill="#7e83bd"/>
  <path d="M289.06,394.39c-1.04,1.96-1.94,4.27-3.59,5.83l-4.03-32.72c.15-2.59.73-5.42.9-8.07l6.72,34.96Z" fill="#7dc575"/>
  <path d="M285.48,400.21c.21.9-2.79,6.12-3.58,5.38l-1.74-5.65c.59-10.8.67-21.65,1.29-32.44l4.03,32.72Z" fill="#56b961"/>
  <path d="M248.73,250.52c4.46-6.53,8.69-13.53,15.47-17.95l2,2.26c-2.95,3.68-6.38,7.25-9.4,10.99-2.61,3.24-4.74,6.87-7.41,10.07-.05-1.77-.58-3.65-.67-5.38Z" fill="#7e83bd"/>
  <path d="M357.18,445.48c13.19,9.96,28.34,22.92,40.36,34.27.63.59,1.9,2.08,2.21,2.93-9.87-4.89-29.74-23.55-38.33-31.81-1.47-1.41-4.01-3.36-4.25-5.39Z" fill="#e2f0f0"/>
  <path d="M289.06,394.39l-6.72-34.96c.15-2.43-.18-4.96,0-7.39.05-.6.22-2.71.89-2.92,1.62,14.25,4.55,28.29,7.19,42.37.5,1.56-1.04,2.28-1.36,2.89Z" fill="#b5d3a7"/>
  <path d="M318.64,294.89l4.48,29.13c-.69.94-1.06,2.55-2.24,3.14-.13-9.74-3.44-19.07-5.36-28.53-.31-2.14,1.78-2.9,3.11-3.74Z" fill="#7e83bd"/>
  <path d="M250.07,206.16l-10.99,12.99c-.89.18-.55-.2-.76-.57-1.03-1.75-2.22-4.19-2.59-6.15,4.51-3.03,8.34-7.13,14.34-6.27Z" fill="#a9dadd"/>
  <path d="M254.11,382.73c2.47,2.05,4.06,4.74,5.84,7.39,5.82,8.66,11.29,17.73,16.57,26.68-1.56.15-1.66,1.24-3.33-.92-6.64-10.87-12.66-22.19-19.08-33.14Z" fill="#1fae5a"/>
  <path d="M327.16,290.86c.53-.23,1.12-1.29,2.24-.9-.19,4.67,1.68,9.9,1.22,14.44-.23,2.21-1.2,4.14-1.67,6.17-2.04,1.6-2.34,4.88-4.48,6.27.12-5.59,2.82-11.84,3.13-17.27.16-2.77-.89-5.83-.45-8.73Z" fill="#c7c5dd"/>
  <path d="M258.59,217.81c-4.65,3.71-5.89,7.06-8.96,11.65-.58-6.35,1.71-12.43,3.59-18.37.03.05.73.04,1.08.47,1.61,1.98,2.91,4.12,4.3,6.25Z" fill="#9d9ecd"/>
  <path d="M157.3,290.86c1.66,2.76,3.12,5.86,4.93,8.52-3.08-.65-5.05-3.92-8.07-4.93-2.35-3.43-6.01-7.71-7.91-11.13-.34-.62-.78-1.04-.6-1.86l11.65,9.41Z" fill="#8ec77a"/>
  <path d="M424.41,505.08c4.35,4.26,6.85,5.94,6.28,13-1.47.09-3.02-.13-4.48,0l-1.79-13Z" fill="#cfe9eb"/>
  <path d="M177.02,213.33c-.73,1.24-.57,3.82-.45,5.38l-6.72-5.38c.04-2.24-.55-5.37.68-7.17.77-.16,5.58,6.08,6.49,7.17Z" fill="#8ec77a"/>
  <path d="M314.16,281.45c1.8.47,5.27-1.1,7.75-.36,1.35.4,1.53,1.62.32,2.37,2,.41,4.16-1.05,6.16-1.46,3.13-.64,6.36-.8,9.52-1.01l-14.14,7.18c-1.67-.01-.97-3.69-1.97-4.74-2.86-.96-5.31.72-8.09.7l.45-2.69Z" fill="#a9dadd"/>
  <path d="M340.15,284.14s.17-.56.67-.06c2.55,5.81,4.1,12.5,3.81,18.89-.89.25-1.98-.48-2.69-.45,0-4.98-1.28-9.9-1.79-14.79-.12-1.15.08-2.42,0-3.59Z" fill="#c7c5dd"/>
  <path d="M258.59,222.29c.33-.47,1.16-3.87,2.23-3.13,1.26,2.99,4.15,4.84,4.94,8.06.31,1.29.72,3-1.12,3.58l-6.06-8.51Z" fill="#c1c0d8"/>
  <path d="M340.15,284.14c.08,1.17-.12,2.43,0,3.59-2.87.45-5.14,3.13-8.07,3.14l-2.24-3.13c3.42-.57,6.92-3.5,10.31-3.59Z" fill="#7e83bd"/>
  <path d="M318.53,286c1.5-.16,2.73,2.63,2.15,3.52-1.57.47-5.95,5.02-6.52,2.01-.61-3.2,1.24-5.2,4.37-5.53Z" fill="#7e83bd"/>
  <path d="M274.27,398.42c.56.55,1.08,1.23,1.42,1.94.94,1.97,8.59,15.32,7.99,15.98-.44.02-.9,0-1.34,0-2.27-4.63-4.87-9.08-7.11-13.73-.65-1.36-.91-3.08-1.41-4.19h.45Z" fill="#8ec77a"/>
  <path d="M269.67,221.01c1.6-.44,3.97,2.45,4.16,3.78.26,1.88-1.27,3.05-2.47,4.21-.84-2.02-5.41-6.97-1.69-7.99Z" fill="#8e90c0"/>
  <path d="M291.75,409.62c.59-.88,1.11-3.34,2.24-4.03l2.25,9.41c-.86.09-1.86-.11-2.69,0l-1.79-5.38Z" fill="#b5d3a7"/>
  <path d="M339.25,306.55c.19.84-.46,1.09-.9,1.58-2.04,2.28-5.46,4.56-7.61,6.93l1.9-6.16,6.6-2.35Z" fill="#7b80b6"/>
  <path d="M246.93,240.22c-.84-.14-.74-.94-.95-1.51-.38-1.04-2.94-8.45-2.63-8.79,4.4,2,5.37,6.02,3.58,10.3Z" fill="#7b80b6"/>
  <path d="M317.74,326.26c-.99-2.24-1.59-5.1-2.12-7.52-1.22-5.51-2.27-11.13-3.26-16.69,2.61,7.56,5.34,16.14,5.38,24.2Z" fill="#c1c0d8"/>
  <path d="M293.54,415c-.12.02-.49.43-1.08.47-1.57.11-3.17-.11-4.74-.02-.82-.74,3.64-5.25,4.03-5.82l1.79,5.38Z" fill="#7dc575"/>
  <path d="M235.73,288.17c-1.52-2.69-2.07-6.36-2.69-9.41.89.62,2.69.91,3.05,2.1.5,2.49-.23,4.91-.36,7.31Z" fill="#b5d3a7"/>
  <path d="M428.44,501.5l.89,4.93c-2.32-1.02-3.67-3.37-5.37-4.93h4.48Z" fill="#c1c0d8"/>
  <path d="M252.31,209.29c.79-.29.88-.96,2.01,0,.47.4,4.64,6.51,4.92,7.18.18.43.39.82.2,1.3-.25.13-.76-.05-.86.02-1.39-2.13-2.69-4.27-4.3-6.25-.35-.43-1.05-.42-1.08-.47-.18-.25.15-1.66-.9-1.79Z" fill="#c1c0d8"/>
  <path d="M401.1,483.57c-.17-.13-.31-.29-.45-.45.17.11.29.32.45.45Z" fill="#e2f0f0"/>
  <path d="M356.73,445.03c-.15-.15-.32-.27-.45-.45.14.16.31.29.45.45Z" fill="#e2f0f0"/>
  <path d="M315.4,568.39c9.96-.39,10.42,14.35,1.22,15.12-10.76.9-11.45-14.72-1.22-15.12Z" fill="#fffefe"/>
  <path d="M296.12,620.79c5.14-.9,7.94,6.41,3.21,9.07-6.64,3.73-10.22-7.84-3.21-9.07Z" fill="#fffefe"/>
  <path d="M235.15,575.54c2.38-.55,5.45.57,6.2,3.02,1.34,4.34-2.21,7.9-6.55,6.55-4.52-1.41-3.98-8.57.34-9.56Z" fill="#fffefe"/>
  <path d="M491.51,243.91c9.76-1.99,11.9,11.69,3.37,13.24-7.81,1.43-11.49-11.59-3.37-13.24Z" fill="#fffefe"/>
  <path d="M215.12,344.64c-8.76-2.57-16.81-5.96-23.96-11.66-6.75-5.39-11.49-12.36-16.83-19.02-1.67-2.08-4.65-4.22-4.92-6.96,9.9,7.63,21.06,13.82,30.69,21.97,6.03,5.1,9.84,10.02,15.02,15.67Z" fill="#7dc575"/>
</svg>