<svg width="48" height="69" viewBox="0 0 48 69" fill="none" xmlns="http://www.w3.org/2000/svg">
<path d="M6.40366 58.5275C4.3044 63.6379 20.6232 63.6368 23.2624 68.4912C23.2624 68.4912 29.2633 55.1675 34.7443 48.288C40.2252 41.4085 47.1302 32.6714 45.6407 30.9499C44.1513 29.2284 36.341 33.9328 36.341 33.9328C36.341 33.9328 45.0074 2.92455 41.4562 2.99516C37.5965 3.0719 30.8894 32.5106 30.8894 32.5106C30.8894 32.5106 32.0933 3.85932 30.3554 0.890901C29.2194 -1.04966 26.8519 0.398515 26.573 3.13166C26.3891 4.93361 22.8224 30.1347 22.8224 30.1347C22.8224 30.1347 19.9214 5.98701 17.983 5.16166C16.0446 4.33628 14.5771 7.16071 15.1098 11.4768C15.6424 15.7928 15.8376 33.7006 15.8376 33.7006C15.8376 33.7006 12.2412 23.5871 10.1475 23.9573C8.05376 24.3275 8.81472 28.2365 9.17842 30.728C9.54213 33.2194 10.5342 48.4723 6.40366 58.5275Z" fill="#FF8A48"/>
<path d="M7.17778 56.2846C4.24968 54.1317 -2.17513 44.6869 2.62749 40.9962C4.03286 39.9162 5.64281 39.1869 7.36763 38.775C13.2292 37.3752 18.0334 35.4924 23.7476 33.5795C29.4618 31.6666 35.0074 28.9038 39.29 24.6701C41.2018 22.7801 42.8983 20.481 43.2463 17.8174C43.5943 15.1539 43.9109 13.6112 41.3335 12.8406L42.0154 8.94604C42.0154 8.94604 49.8335 11.8962 47.5981 18.8827C45.3746 25.832 35.2795 36.8019 7.89621 42.5935C7.74967 42.6245 7.60261 42.6554 7.45504 42.6861C7.45504 42.6861 4.05336 43.9476 5.02528 46.9556C5.99719 49.9637 8.05098 53.2213 8.05098 53.2213L7.17778 56.2846Z" fill="#A3D9C4"/>
<path d="M43.9821 35.8876L43.1656 36.9458C43.8604 38.396 43.4247 40.2179 42.3682 41.4311C41.3682 42.5794 39.8526 43.296 38.364 43.5504C36.6863 43.837 35.0105 44.2047 33.3476 44.6202C29.9084 45.4794 26.4988 46.538 23.3177 48.12C18.3762 50.5774 13.9282 54.4799 11.9747 59.635C11.0809 61.9941 10.8864 65.0142 12.7637 66.702C14.945 68.663 18.3704 67.6353 21.079 66.5055L20.6682 66.2307C20.0519 65.7932 19.3723 65.5929 18.6466 65.3807C17.9384 65.5998 17.1434 65.5879 16.4026 65.5591C15.6618 65.5303 14.8893 65.2027 14.5251 64.558C14.1276 63.8545 14.2997 62.9754 14.5413 62.2045C15.9653 57.6598 19.4025 53.9326 23.443 51.4022C27.4834 48.8717 32.1111 47.4317 36.7566 46.3524C38.513 45.9443 40.2998 45.5774 41.9253 44.798C43.551 44.0187 45.0296 42.762 45.6603 41.0753C46.291 39.3886 45.4546 36.9271 43.9821 35.8876Z" fill="#A3D9C4"/>
<path d="M30.9007 3.57719L31.0562 5.00106C31.7925 5.40107 33.8446 5.55737 33.2933 7.31632C33.0429 8.11491 30.39 9.50932 29.6563 9.91394C21.5564 14.3811 11.082 13.631 3.6603 19.1491C2.04269 20.3519 0.567455 21.9297 0.130226 23.8956C-0.410212 26.3256 0.790212 28.8977 2.64409 30.5621C4.49807 32.2266 6.93293 33.0586 9.3389 33.7118C9.3389 32.6872 9.17833 31.7526 9.17833 30.7281C7.64216 30.6889 6.4793 30.0649 5.36974 29.0036C4.26018 27.9422 3.68236 26.2799 4.12236 24.81C4.65303 23.0376 6.4243 21.9568 8.12881 21.2316C12.6564 19.3052 17.6318 18.7114 22.318 17.2103C27.0041 15.7092 35.5186 12.3641 36.369 7.5245C36.9848 4.02058 31.9658 2.99342 30.9007 3.57719Z" fill="#A3D9C4"/>
</svg>
