<svg xmlns:xlink="http://www.w3.org/1999/xlink"  width="153" height="21" viewBox="0 0 153 21" fill="none" xmlns="http://www.w3.org/2000/svg">
	<g clip-path="url(#clip0_50_762)">
	<g opacity="0.5">
	<path d="M5.65651 8.15665V0.347046H-0.000244141V20.1752H5.65651V12.0438V8.15665Z" fill="currentColor"></path>
	<path d="M14.9832 0.347046V8.15665V12.0438V20.1752H20.6399V0.347046H14.9832Z" fill="currentColor"></path>
	</g>
	<path d="M2.3485 7.63154C2.61918 7.6712 2.83022 7.7329 3.05961 7.7946L3.71108 7.93564C4.12857 8.01497 4.52771 8.0943 4.9039 8.156C5.63795 8.27499 6.30777 8.33669 6.91795 8.37636C8.00985 8.43806 9.12009 8.43806 10.2074 8.37636C11.2993 8.31466 12.3866 8.21329 13.4739 8.05463C14.1437 7.95326 14.7952 7.81223 15.465 7.65357C15.8412 7.57424 16.1991 7.45084 16.6166 7.33185L17.2451 7.12911C17.4745 7.04978 17.6855 6.97045 17.9378 6.90875C18.3553 8.60113 17.5204 10.3111 16.0752 11.5584C14.63 12.8056 12.5564 13.5725 10.4597 13.6518C8.36311 13.7311 6.22978 13.2067 4.65616 12.0828C3.90376 11.5584 3.27524 10.8753 2.81187 10.0908C2.60083 9.70734 2.45402 9.32391 2.35309 8.90082C2.3118 8.69809 2.28886 8.47772 2.27051 8.27499C2.3118 8.05463 2.33474 7.83427 2.35309 7.63154" fill="currentColor"></path>
	<path d="M39.6704 17.0396H36.6516V11.0105H30.77V17.0396H27.7559V2.97614H30.77V8.67468H36.6516V2.97614H39.6704V17.0396Z" fill="currentColor"></path>
	<path d="M46.81 17.23C45.2134 17.23 43.9151 16.7584 42.915 15.8197C41.9148 14.8809 41.4102 13.6293 41.4102 12.0647V11.7959C41.4102 10.747 41.6212 9.80823 42.0433 8.97967C42.4653 8.15111 43.0618 7.51647 43.8371 7.06693C44.6124 6.6174 45.4933 6.39703 46.4843 6.39703C47.9707 6.39703 49.1452 6.84657 49.9985 7.75005C50.8518 8.65353 51.2785 9.93163 51.2785 11.5843V12.7258H44.3509C44.4427 13.4089 44.7271 13.9554 45.1997 14.3697C45.6722 14.7796 46.2686 14.9867 46.9935 14.9867C48.1129 14.9867 48.9892 14.5989 49.6177 13.8188L51.0445 15.3525C50.6087 15.9431 50.0215 16.4058 49.2736 16.7364C48.5304 17.0669 47.7046 17.2344 46.8008 17.2344M46.4705 8.64913C45.8924 8.64913 45.4245 8.83864 45.0666 9.21325C44.7088 9.58787 44.4794 10.1255 44.3785 10.8219H48.4203V10.5971C48.4066 9.9757 48.2322 9.49531 47.8973 9.15596C47.5624 8.8166 47.0853 8.64472 46.4705 8.64472" fill="currentColor"></path>
	<path d="M55.6867 2.20172H52.7734V17.0364H55.6867V2.20172Z" fill="currentColor"></path>
	<path d="M57.3018 3.88359C57.3018 3.46491 57.4486 3.12114 57.7376 2.8523C58.0312 2.58346 58.4258 2.44684 58.9304 2.44684C59.4351 2.44684 59.8205 2.58346 60.1187 2.8523C60.4123 3.12114 60.5591 3.46931 60.5591 3.88359C60.5591 4.29787 60.4077 4.65486 60.1141 4.92811C59.8159 5.19695 59.4213 5.33357 58.9304 5.33357C58.4395 5.33357 58.0496 5.19695 57.7514 4.92811C57.4532 4.65927 57.3063 4.31109 57.3063 3.88359M60.3939 17.0392H57.4807V6.58522H60.3939V17.0348V17.0392Z" fill="currentColor"></path>
	<path d="M68.758 15.9729C68.0423 16.8103 67.0468 17.229 65.7805 17.229C64.6152 17.229 63.7252 16.9072 63.1104 16.2638C62.4957 15.6203 62.1837 14.6772 62.1699 13.4343V6.58551H65.074V13.3462C65.074 14.4348 65.5878 14.9813 66.6247 14.9813C67.6615 14.9813 68.2855 14.6507 68.6571 13.9941V6.58551H71.5749V17.035H68.8406L68.758 15.9729V15.9729Z" fill="currentColor"></path>
	<path d="M76.0746 6.58778L76.1664 7.75569C76.9371 6.8478 77.9786 6.39386 79.2953 6.39386C80.6945 6.39386 81.658 6.92713 82.181 7.98928C82.9471 6.92713 84.0345 6.39386 85.4475 6.39386C86.6266 6.39386 87.5028 6.7244 88.0809 7.38549C88.659 8.04657 88.948 9.03819 88.948 10.3648V17.0373H86.0301V10.3736C86.0301 9.78302 85.9109 9.3467 85.6677 9.07345C85.4246 8.8002 85.0025 8.66358 84.3923 8.66358C83.5206 8.66358 82.9196 9.06464 82.5847 9.86235L82.5939 17.0373H79.6898V10.3824C79.6898 9.77861 79.5659 9.33789 79.3182 9.06905C79.0705 8.80021 78.6484 8.66358 78.052 8.66358C77.2262 8.66358 76.6297 8.98972 76.2627 9.64639V17.0373H73.3586V6.58778H76.0838H76.0746Z" fill="currentColor"></path>
	<g opacity="0.5">
	<path d="M107.983 17.0388H104.964V11.0097H99.0825V17.0388H96.0684V2.97537H99.0825V8.67392H104.964V2.97537H107.983V17.0388Z" fill="currentColor"></path>
	</g>
	<g opacity="0.5">
	<path d="M115.122 17.2319C113.526 17.2319 112.228 16.7604 111.227 15.8216C110.223 14.8829 109.723 13.6312 109.723 12.0667V11.7978C109.723 10.7489 109.934 9.81018 110.356 8.98162C110.778 8.15306 111.374 7.51842 112.15 7.06889C112.925 6.61935 113.806 6.39899 114.801 6.39899C116.288 6.39899 117.462 6.84852 118.316 7.752C119.169 8.65549 119.596 9.93358 119.596 11.5863V12.7278H112.668C112.76 13.4109 113.044 13.9574 113.517 14.3717C113.989 14.7815 114.586 14.9887 115.311 14.9887C116.43 14.9887 117.306 14.6008 117.935 13.8208L119.362 15.3545C118.926 15.945 118.339 16.4078 117.591 16.7383C116.848 17.0689 116.022 17.2364 115.118 17.2364M114.788 8.65108C114.21 8.65108 113.742 8.84059 113.384 9.2152C113.026 9.58982 112.796 10.1275 112.696 10.8238H116.737V10.5991C116.724 9.97765 116.549 9.49727 116.214 9.15791C115.879 8.81855 115.402 8.64667 114.788 8.64667" fill="currentColor"></path>
	</g>
	<g opacity="0.5">
	<path d="M127.404 17.0395C127.27 16.7883 127.174 16.4754 127.11 16.1008C126.408 16.8544 125.49 17.229 124.366 17.229C123.302 17.229 122.417 16.9338 121.715 16.3388C121.013 15.7438 120.664 14.999 120.664 14.0999C120.664 12.9937 121.091 12.1431 121.944 11.5481C122.797 10.9576 124.032 10.6579 125.651 10.6491H126.986V10.0497C126.986 9.56488 126.858 9.18145 126.601 8.89057C126.344 8.59969 125.935 8.45426 125.38 8.45426C124.889 8.45426 124.509 8.56884 124.229 8.79361C123.949 9.01838 123.811 9.32689 123.811 9.71913H120.907C120.907 9.11534 121.1 8.55562 121.49 8.03998C121.88 7.52433 122.43 7.12327 123.137 6.82799C123.848 6.53711 124.646 6.38727 125.532 6.38727C126.871 6.38727 127.936 6.709 128.725 7.35686C129.514 8.00472 129.904 8.91261 129.904 10.0849V14.6156C129.913 15.6072 130.055 16.3564 130.335 16.8677V17.0307H127.399L127.404 17.0395ZM125 15.0959C125.426 15.0959 125.825 15.0034 126.188 14.8227C126.55 14.6376 126.816 14.3952 126.991 14.0823V12.2841H125.903C124.449 12.2841 123.674 12.7689 123.582 13.7341L123.573 13.8972C123.573 14.2454 123.701 14.5318 123.954 14.7566C124.206 14.9814 124.555 15.0959 125 15.0959" fill="currentColor"></path>
	</g>
	<g opacity="0.5">
	<path d="M134.583 2.19977H131.67V17.0345H134.583V2.19977Z" fill="currentColor"></path>
	</g>
	<g opacity="0.5">
	<path d="M140.148 4.01515V6.58456H142.006V8.63392H140.148V13.8477C140.148 14.2355 140.226 14.5132 140.377 14.6806C140.533 14.8481 140.827 14.9318 141.263 14.9318C141.584 14.9318 141.868 14.9098 142.116 14.8657V16.9812C141.547 17.1487 140.96 17.2324 140.359 17.2324C138.322 17.2324 137.28 16.2452 137.244 14.2664V8.63392H135.656V6.58456H137.244V4.01515H140.148V4.01515Z" fill="currentColor"></path>
	</g>
	<g opacity="0.5">
	<path d="M146.095 7.72643C146.865 6.83617 147.833 6.39545 148.999 6.39545C151.357 6.39545 152.554 7.71321 152.586 10.3443V17.0389H149.682V10.4237C149.682 9.82427 149.549 9.38355 149.278 9.09708C149.012 8.81061 148.563 8.66957 147.943 8.66957C147.09 8.66957 146.475 8.9869 146.095 9.61713V17.0433H143.19V2.19977H146.095V7.72202V7.72643Z" fill="currentColor"></path>
	</g>
	</g>
	<defs>
	<clipPath id="clip0_50_762">
	<rect width="152.59" height="19.8281" fill="currentColor" transform="translate(0 0.345276)"></rect>
	</clipPath>
	</defs>
</svg>