<svg xmlns:xlink="http://www.w3.org/1999/xlink"  xmlns="http://www.w3.org/2000/svg" width="90" height="38" viewBox="0 0 160 38" fill="none"><path d="M48.6329 8.61206H43.9459V10.8177C43.9459 12.403 43.0844 13.6092 41.2923 13.6092H40.4307V18.1927H43.4635V25.5333C43.4635 28.9451 45.6346 31.0474 49.1843 31.0474C50.8385 31.0474 51.7001 30.6683 51.9069 30.5649V26.2226C51.5967 26.2915 51.0798 26.3949 50.5283 26.3949C49.3911 26.3949 48.6329 26.0158 48.6329 24.6028V18.1927H51.9758V13.6092H48.6329V8.61206Z" fill="#1A1A1A"></path><path d="M58.0709 20.1227C58.1743 18.8475 59.2771 17.2278 61.4827 17.2278C63.964 17.2278 64.86 18.8131 64.929 20.1227H58.0709ZM65.3081 24.5684C64.8256 25.9124 63.7572 26.8085 61.8618 26.8085C59.8285 26.8085 58.0709 25.4299 57.9675 23.5H69.8916C69.9261 23.3966 69.995 22.604 69.995 21.8803C69.995 16.3662 66.721 13.0922 61.4138 13.0922C56.9681 13.0922 52.867 16.6074 52.867 22.1215C52.867 27.8768 57.0714 31.2542 61.7929 31.2542C66.1352 31.2542 68.8577 28.7728 69.6848 25.809L65.3081 24.5684Z" fill="#1A1A1A"></path><path d="M70.946 26.0158C70.946 28.7384 73.1171 31.2197 76.8736 31.2197C79.1481 31.2197 80.8023 30.2547 81.6984 28.8073C81.6984 29.979 81.6639 30.5994 81.6984 30.7372H86.3853C86.3509 30.5649 86.3853 29.4276 86.3853 28.0836V19.7091C86.3853 16.1939 84.352 13.0922 78.8035 13.0922C73.7719 13.0922 71.4974 16.3317 71.2906 18.7786L75.8397 19.7091C75.9431 18.434 76.9425 17.1933 78.769 17.1933C80.4233 17.1933 81.2848 18.0549 81.2848 19.0543C81.2848 19.6402 80.9747 20.0882 80.0442 20.226L76.012 20.8464C73.1861 21.2599 70.946 22.9831 70.946 26.0158ZM78.1487 27.4288C76.7013 27.4288 76.1154 26.5672 76.1154 25.6712C76.1154 24.465 76.9425 23.948 78.0453 23.7757L81.2848 23.2588V24.017C81.2848 26.6706 79.6995 27.4288 78.1487 27.4288Z" fill="#1A1A1A"></path><path d="M93.7215 30.7372V20.8808C93.7215 19.33 94.7209 17.917 96.5474 17.917C98.4429 17.917 99.3045 19.1922 99.3045 20.8119V30.7372H104.474V20.8464C104.474 19.33 105.473 17.917 107.334 17.917C109.195 17.917 110.057 19.1922 110.057 20.8119V30.7372H115.123V19.6402C115.123 14.9877 112.021 13.0922 108.782 13.0922C106.473 13.0922 104.819 13.8504 103.474 15.7803C102.613 14.0917 100.855 13.0922 98.4084 13.0922C96.5474 13.0922 94.3418 14.0572 93.4803 15.5736V13.6092H88.4831V30.7372H93.7215Z" fill="#1A1A1A"></path><path d="M117.36 26.2915C117.36 28.9107 119.531 31.2542 122.909 31.2542C125.872 31.2542 127.527 29.6689 128.25 28.4971C128.25 29.7033 128.181 30.3237 128.25 30.7372H131.386C131.317 30.3237 131.386 29.4621 131.386 28.0147V19.7091C131.386 16.4696 129.456 13.6437 124.494 13.6437C120.91 13.6437 118.049 15.8493 117.705 19.0199L120.806 19.7436C121.013 17.8137 122.288 16.4007 124.563 16.4007C127.079 16.4007 128.147 17.7447 128.147 19.3645C128.147 19.9504 127.871 20.4673 126.872 20.6051L122.392 21.2599C119.531 21.6735 117.36 23.3277 117.36 26.2915ZM123.357 28.5316C121.702 28.5316 120.668 27.3599 120.668 26.1192C120.668 24.6373 121.702 23.8447 123.081 23.6379L128.147 22.8797V23.6379C128.147 27.2565 126.01 28.5316 123.357 28.5316Z" fill="#1A1A1A"></path><path d="M136.397 37.2852V28.4971C137.293 29.979 139.223 31.1852 141.773 31.1852C146.632 31.1852 149.493 27.3599 149.493 22.4317C149.493 17.6069 146.839 13.7815 141.876 13.7815C139.188 13.7815 137.224 15.0911 136.328 16.7453V14.1606H133.192V37.2852H136.397ZM146.184 22.4317C146.184 25.8435 144.289 28.2904 141.29 28.2904C138.327 28.2904 136.362 25.8435 136.362 22.4317C136.362 19.1232 138.327 16.6419 141.29 16.6419C144.323 16.6419 146.184 19.1232 146.184 22.4317Z" fill="#1A1A1A"></path><path d="M156.416 8.92224H153.452V11.6103C153.452 13.0578 152.694 14.1606 150.902 14.1606H150.006V17.0899H153.176V26.1881C153.176 29.1864 154.968 30.9095 157.794 30.9095C158.897 30.9095 159.724 30.7028 160 30.5994V27.8424C159.724 27.9113 159.138 27.9802 158.725 27.9802C157.036 27.9802 156.416 27.222 156.416 25.7057V17.0899H160V14.1606H156.416V8.92224Z" fill="#1A1A1A"></path><path d="M12.8843 28.4341L13.6546 29.6738C12.3708 28.9253 10.8302 28.6914 9.31293 29.0423L6.34848 29.744C1.28323 30.9604 -2.17141 24.6913 1.58668 21.0422L9.96651 12.8549C9.35962 14.1181 8.93946 15.4748 8.79941 16.855C8.47262 19.6386 9.1262 22.4925 10.6434 24.8551L12.8843 28.4341Z" fill="#FBB416"></path><path d="M30.7645 26.8667L30.7178 31.5685C30.6944 32.972 30.2509 34.2586 29.4106 35.2879C28.6403 36.2236 27.5666 36.9253 26.3528 37.2528C25.139 37.6037 23.8552 37.5569 22.7347 37.1592C21.4976 36.7148 20.4472 35.8727 19.7003 34.6797L14.9385 27.0772L12.5809 23.3579C11.2037 21.1824 10.5968 18.5625 10.8769 16.0128C10.9936 14.9133 11.2971 13.8373 11.7406 12.808C11.7639 13.2291 11.834 13.6736 11.9507 14.0946C12.5576 16.5274 14.3549 18.3754 16.7592 19.0771L26.843 22.0011C29.0138 22.6327 30.5777 24.5977 30.7645 26.8667Z" fill="#0371AC"></path><path d="M30.8344 5.34604V5.463V6.51565L30.6944 21.9778C30.6944 21.9778 30.6944 21.9544 30.671 21.9544C29.8307 20.855 28.6403 20.0129 27.2397 19.6152L17.5294 16.8082C15.7087 16.2702 14.3549 14.8666 13.888 13.0187C13.4912 11.4748 13.7947 9.88411 14.705 8.64433C14.8917 8.38702 15.1018 8.1531 15.3119 7.94257L21.8944 1.50974C23.435 -0.0107521 25.6525 -0.408418 27.6366 0.433698C29.6206 1.27581 30.8578 3.17058 30.8344 5.34604Z" fill="#29ABE2"></path></svg>